<?xml version="1.0" encoding="UTF-8" standalone="no"?>
<!-- Generator: Adobe Illustrator 21.0.2, SVG Export Plug-In . SVG Version: 6.00 Build 0)  -->

<svg
   xmlns:dc="http://purl.org/dc/elements/1.1/"
   xmlns:cc="http://creativecommons.org/ns#"
   xmlns:rdf="http://www.w3.org/1999/02/22-rdf-syntax-ns#"
   xmlns:svg="http://www.w3.org/2000/svg"
   xmlns="http://www.w3.org/2000/svg"
   xmlns:sodipodi="http://sodipodi.sourceforge.net/DTD/sodipodi-0.dtd"
   xmlns:inkscape="http://www.inkscape.org/namespaces/inkscape"
   version="1.1"
   id="Слой_1"
   x="0px"
   y="0px"
   viewBox="0 0 49.10623 44.696098"
   xml:space="preserve"
   sodipodi:docname="Stas-znachok.svg"
   inkscape:version="0.92.0 r15299"
   width="49.106232"
   height="44.696098"><metadata
     id="metadata52"><rdf:RDF><cc:Work
         rdf:about=""><dc:format>image/svg+xml</dc:format><dc:type
           rdf:resource="http://purl.org/dc/dcmitype/StillImage" /><dc:title></dc:title></cc:Work></rdf:RDF></metadata><defs
     id="defs50" /><sodipodi:namedview
     pagecolor="#ffffff"
     bordercolor="#666666"
     borderopacity="1"
     objecttolerance="10"
     gridtolerance="10"
     guidetolerance="10"
     inkscape:pageopacity="0"
     inkscape:pageshadow="2"
     inkscape:window-width="1920"
     inkscape:window-height="1017"
     id="namedview48"
     showgrid="false"
     showguides="true"
     inkscape:guide-bbox="true"
     inkscape:zoom="14.98"
     inkscape:cx="26.99468"
     inkscape:cy="19.201036"
     inkscape:window-x="-8"
     inkscape:window-y="-8"
     inkscape:window-maximized="1"
     inkscape:current-layer="Слой_1"
     fit-margin-top="0"
     fit-margin-left="0"
     fit-margin-right="0"
     fit-margin-bottom="0" /><style
     type="text/css"
     id="style2">
	.st0{fill-rule:evenodd;clip-rule:evenodd;stroke:#000000;stroke-width:0.2835;stroke-miterlimit:10;}
	.st1{fill-rule:evenodd;clip-rule:evenodd;}
	.st2{fill:none;stroke:#000000;stroke-width:0.9921;stroke-linecap:round;stroke-linejoin:round;stroke-miterlimit:10;}
</style><g
     id="глобус"
     transform="translate(0.60311499,-3.1039004)"><path
       class="st0"
       d="M 17,26.3 15.6,25.5 C 15.4,25.4 15.2,25.2 15,25.1 L 14.1,24.2 C 13.9,24 13.8,23.8 13.7,23.6 L 13.1,22.5 C 13,22.3 12.9,22.1 12.9,21.8 l -0.2,-1.3 c 0,-0.2 0,-0.5 0,-0.7 l 0.2,-1.4 0.2,0.7 c 0.1,0.2 0.2,0.5 0.4,0.7 l 0.1,0.1 c 0.2,0.3 0.5,0.4 0.9,0.5 l 1,0.2 c 0.2,0 0.4,0.1 0.6,0 0,0 1.1,-0.1 1.5,-0.2 0.2,0 0.8,0 0.8,0 l 0.6,0.5 0.1,0.8 -0.5,0.6 -0.8,0.2 -0.7,0.5 -0.4,0.8 c -0.1,0.2 -0.1,0.4 -0.1,0.7 V 25 c 0,0.2 0,0.5 0.1,0.7 l 0.3,0.6"
       id="path4"
       inkscape:connector-curvature="0"
       style="clip-rule:evenodd;fill-rule:evenodd;stroke:#000000;stroke-width:0.28349999;stroke-miterlimit:10" /><path
       class="st1"
       d="m 18.7,16.7 1,-0.2 c 0.2,0 0.4,-0.1 0.5,-0.3 l 0.8,-0.7 0.1,-0.8 -0.3,-0.8 -0.7,-0.5 1.8,0.5 c 0.1,0 0.2,0.1 0.3,0.1 l 1.4,0.9 c 0.1,0.1 0.2,0.1 0.3,0.2 l 1.1,1.3 c 0.1,0.1 0.1,0.2 0.2,0.3 l 0.4,0.9 c 0.2,0.5 0.1,1.1 -0.2,1.5 v 0 c -0.2,0.3 -0.4,0.5 -0.7,0.6 L 23.9,20 H 23 l -0.8,-0.5 -0.7,-0.6 c -0.2,-0.2 -0.3,-0.3 -0.6,-0.4 l -0.6,-0.2 c -0.2,-0.1 -0.4,-0.1 -0.6,-0.1 h -0.9 l -0.5,-0.4 -0.1,-0.7 0.5,-0.4"
       id="path6"
       inkscape:connector-curvature="0"
       style="clip-rule:evenodd;fill-rule:evenodd" /><polyline
       class="st1"
       points="33.6,20.2 33.4,20.7 32.9,20.9 32.4,20.7 32.2,20.2 32.4,19.7 32.9,19.5 33.4,19.7 33.6,20.2  "
       id="polyline8"
       transform="matrix(2,0,0,2,-32.941389,-20.224699)"
       style="clip-rule:evenodd;fill-rule:evenodd" /><path
       class="st2"
       d="m 26.1,20.1 c 0,-3.7 -3,-6.7 -6.7,-6.7 -3.7,0 -6.7,3 -6.7,6.7 0,3.7 3,6.7 6.7,6.7 3.8,-0.1 6.7,-3.1 6.7,-6.7"
       id="path10"
       inkscape:connector-curvature="0"
       style="fill:none;stroke:#000000;stroke-width:0.9921;stroke-linecap:round;stroke-linejoin:round;stroke-miterlimit:10" /></g><g
     id="Текст"
     transform="matrix(1.0108925,0,0,1.0494486,0.57697292,-5.4675458)"><path
       d="m 7,39.7 h 1 v 4.6 c 0,0.8 -0.1,1.4 -0.2,1.9 -0.2,0.5 -0.5,0.9 -0.9,1.2 -0.4,0.3 -1,0.4 -1.7,0.4 C 4.3,47.8 3.5,47.5 3.1,47 2.6,46.5 2.4,45.6 2.4,44.3 v -4.6 h 0.9 v 4.6 c 0,0.7 0.1,1.3 0.2,1.6 0.1,0.3 0.3,0.6 0.6,0.7 0.3,0.1 0.6,0.3 1,0.3 0.7,0 1.2,-0.2 1.5,-0.5 0.3,-0.4 0.5,-1 0.5,-2 v -4.7 z"
       id="path13"
       inkscape:connector-curvature="0" /><path
       d="m 9.9,47.7 v -8 h 1 l 3.8,6.3 v -6.3 h 0.9 v 8 h -1 l -3.8,-6.3 v 6.3 z"
       id="path15"
       inkscape:connector-curvature="0" /><path
       d="m 17.6,47.7 v -8 h 3.2 c 0.7,0 1.2,0.1 1.5,0.2 0.3,0.1 0.6,0.4 0.8,0.7 0.2,0.3 0.3,0.8 0.3,1.2 0,0.6 -0.2,1.1 -0.5,1.5 -0.3,0.4 -0.8,0.6 -1.5,0.7 0.3,0.1 0.5,0.3 0.6,0.4 0.3,0.3 0.5,0.6 0.7,1 l 1.333378,2.26195 H 22.900134 L 21.8,45.9 C 21.4,45.2 21.2,44.8 21,44.6 l -0.5,-0.5 c -0.116555,-0.04286 0.03876,-0.04621 -0.666622,-0.04159 l -1.275301,0.0083 v 3.595194 z m 0.958077,-4.5 H 20.5 c 0.4,0 0.8,0 1,-0.1 0.2,-0.1 0.4,-0.3 0.5,-0.5 0.1,-0.2 0.2,-0.5 0.2,-0.7 0,-0.4 -0.1,-0.7 -0.4,-1 -0.3,-0.3 -0.6,-0.3 -1.2,-0.3 h -2.028814 l -0.01311,1.331642 z"
       id="path17"
       inkscape:connector-curvature="0"
       sodipodi:nodetypes="ccssssscsccccscscccccsssssscc" /><path
       d="m 25.2,47.7 v -8 h 5.2 v 0.9 h -4.2 v 2.5 h 4 V 44 h -4 v 2.7 h 4.4 v 0.9 h -5.4 z"
       id="path19"
       inkscape:connector-curvature="0" /><path
       d="m 31.5,47.7 2.8,-8 h 1 l 2.9,8 h -1.1 l -0.8,-2.4 h -3 l -0.8,2.4 z m 2.1,-3.3 H 36 L 35.3,42.2 C 35.1,41.5 34.9,41 34.8,40.5 34.7,41 34.6,41.5 34.4,42 Z"
       id="path21"
       inkscape:connector-curvature="0" /><path
       d="m 39.3,47.7 v -8 h 2.5 c 0.6,0 1.1,0 1.4,0.1 0.4,0.1 0.8,0.4 1.1,0.7 0.3,0.3 0.5,0.8 0.7,1.3 0.2,0.5 0.3,1.1 0.3,1.8 0,0.9 -0.1,1.7 -0.4,2.3 -0.3,0.6 -0.7,1.1 -1.1,1.3 -0.5,0.3 -1.1,0.4 -1.8,0.4 h -2.7 z m 1,-0.9 h 1.5 c 0.6,0 1.1,-0.1 1.4,-0.3 0.3,-0.2 0.6,-0.5 0.7,-0.9 0.2,-0.5 0.3,-1.2 0.3,-2 0,-0.8 -0.1,-1.5 -0.4,-1.9 -0.2,-0.5 -0.5,-0.8 -0.9,-0.9 -0.3,-0.1 -0.7,-0.2 -1.2,-0.2 h -1.5 v 6.2 z"
       id="path23"
       inkscape:connector-curvature="0" /></g><g
     id="Контур"
     transform="translate(0.60311499,-3.1039004)"><path
       class="st2"
       d="m 39.7,27.9 c 0,4.6 3.7,8.3 8.3,8.3"
       id="path26"
       inkscape:connector-curvature="0"
       style="fill:none;stroke:#000000;stroke-width:0.9921;stroke-linecap:round;stroke-linejoin:round;stroke-miterlimit:10" /><path
       class="st2"
       d="m 8.3,27.9 c 0,4.6 -3.7,8.4 -8.4,8.4"
       id="path28"
       inkscape:connector-curvature="0"
       style="fill:none;stroke:#000000;stroke-width:0.9921;stroke-linecap:round;stroke-linejoin:round;stroke-miterlimit:10" /><path
       class="st2"
       d="M 8.3,3.5"
       id="path30"
       inkscape:connector-curvature="0"
       style="fill:none;stroke:#000000;stroke-width:0.9921;stroke-linecap:round;stroke-linejoin:round;stroke-miterlimit:10" /><path
       class="st2"
       d="m 8.3,8.1 c 0,-2.5 2,-4.5 4.5,-4.5"
       id="path32"
       inkscape:connector-curvature="0"
       style="fill:none;stroke:#000000;stroke-width:0.9921;stroke-linecap:round;stroke-linejoin:round;stroke-miterlimit:10" /><line
       class="st2"
       x1="0"
       y1="36.200001"
       x2="48"
       y2="36.200001"
       id="line34"
       style="fill:none;stroke:#000000;stroke-width:0.9921;stroke-linecap:round;stroke-linejoin:round;stroke-miterlimit:10" /><g
       id="g38"><path
         class="st2"
         d="M 39.7,27.9 V 8.1 c 0,-2.5 -2,-4.5 -4.5,-4.5 H 12.8"
         id="path36"
         inkscape:connector-curvature="0"
         style="fill:none;stroke:#000000;stroke-width:0.9921;stroke-linecap:round;stroke-linejoin:round;stroke-miterlimit:10" /></g><g
       id="g42"><line
         class="st2"
         x1="8.3000002"
         y1="8.1000004"
         x2="8.3000002"
         y2="27.9"
         id="line40"
         style="fill:none;stroke:#000000;stroke-width:0.9921;stroke-linecap:round;stroke-linejoin:round;stroke-miterlimit:10" /></g></g><line
     class="st1"
     x1="21.703115"
     y1="11.5961"
     x2="21.603115"
     y2="12.3961"
     id="line45"
     style="clip-rule:evenodd;fill-rule:evenodd" /></svg>